Coordinates
version=1
nRows=37
nColumns=34
inDegrees=no

Units are S.I. units (second, meters, Newtons, ...)
If the header above contains a line with 'inDegrees', this indicates whether rotational values are in degrees (yes) or radians (no).

endheader
time	pelvis_tilt	pelvis_list	pelvis_rotation	pelvis_tx	pelvis_ty	pelvis_tz	hip_flexion_r	hip_adduction_r	hip_rotation_r	knee_angle_r	ankle_angle_r	subtalar_angle_r	mtp_angle_r	hip_flexion_l	hip_adduction_l	hip_rotation_l	knee_angle_l	ankle_angle_l	subtalar_angle_l	mtp_angle_l	lumbar_extension	lumbar_bending	lumbar_rotation	arm_flex_r	arm_add_r	arm_rot_r	elbow_flex_r	pro_sup_r	arm_flex_l	arm_add_l	arm_rot_l	elbow_flex_l	pro_sup_l
9.76	-0.434826	-0.0330421	-0.0324147	-0.220003	0.91943	-0.705603	0.7123	-0.207387	-0.151453	0.399156	0.160632	0.172236	-0.0964325	0.743908	-0.301052	-0.176728	0.459256	0.16392	0.160235	-0.0963255	-0.0235273	0.0279199	0.08371	0.518423	-0.624489	0.0527759	2.04462	1.51967	0.581889	-0.529444	0.149799	1.98215	1.69814
9.77	-0.427826	-0.0336796	-0.0327716	-0.217324	0.922433	-0.705651	0.68978	-0.204071	-0.152795	0.376899	0.152116	0.174592	-0.0964325	0.722244	-0.299235	-0.18116	0.439791	0.158203	0.162994	-0.0963257	-0.01794	0.0274532	0.0836117	0.499515	-0.621568	0.0513034	2.04241	1.52098	0.56342	-0.531018	0.14983	1.98103	1.69841
9.78	-0.421001	-0.0344842	-0.0330862	-0.214707	0.92523	-0.705687	0.667829	-0.200589	-0.153715	0.355252	0.143907	0.17647	-0.0964325	0.701348	-0.297597	-0.185134	0.421083	0.152894	0.165635	-0.0963259	-0.0123504	0.0271156	0.0836103	0.480931	-0.618791	0.0498253	2.04023	1.52207	0.545879	-0.532566	0.150275	1.97979	1.69866
9.79	-0.414374	-0.0354745	-0.0333402	-0.212153	0.927823	-0.705717	0.646466	-0.196958	-0.154279	0.334229	0.136007	0.177906	-0.0964326	0.681228	-0.296153	-0.188663	0.403107	0.148011	0.168184	-0.0963262	-0.00675441	0.0269504	0.0836491	0.46266	-0.616093	0.0482901	2.03807	1.52315	0.529155	-0.534059	0.15097	1.97841	1.69901
9.8	-0.407951	-0.0366536	-0.0335259	-0.209664	0.930219	-0.705744	0.625704	-0.193212	-0.154577	0.313851	0.128427	0.178988	-0.0964326	0.661867	-0.294913	-0.1918	0.385833	0.143569	0.170687	-0.0963264	-0.00116323	0.0269822	0.0836775	0.444699	-0.613406	0.0466563	2.03594	1.52441	0.513137	-0.535481	0.151755	1.97692	1.69959
9.81	-0.401723	-0.0380117	-0.03365	-0.207241	0.932425	-0.70577	0.605548	-0.189388	-0.154724	0.294143	0.121194	0.179857	-0.0964326	0.643228	-0.293891	-0.194629	0.369241	0.139587	0.173209	-0.0963266	0.0043958	0.0272173	0.0836633	0.427048	-0.610671	0.044885	2.03386	1.5259	0.497721	-0.536821	0.152481	1.97529	1.70055
9.82	-0.395669	-0.0395308	-0.0337282	-0.204884	0.93445	-0.705796	0.585996	-0.185527	-0.154845	0.275137	0.114347	0.180683	-0.0964327	0.625269	-0.293103	-0.197251	0.353336	0.136084	0.17582	-0.0963268	0.00988309	0.0276497	0.0835922	0.409699	-0.607843	0.0429342	2.03186	1.52763	0.48281	-0.53806	0.153016	1.97354	1.70201
9.83	-0.389758	-0.0411888	-0.0337759	-0.202593	0.936304	-0.705823	0.567037	-0.181667	-0.155071	0.256866	0.107932	0.181645	-0.0964327	0.607951	-0.292563	-0.199763	0.338142	0.133081	0.178591	-0.096327	0.0152497	0.0282669	0.0834567	0.39265	-0.604899	0.0407598	2.02999	1.52948	0.468311	-0.539174	0.15324	1.97166	1.70398
9.84	-0.383949	-0.0429626	-0.0337991	-0.200368	0.937998	-0.705853	0.548643	-0.177842	-0.155523	0.239357	0.101993	0.182905	-0.0964328	0.591231	-0.292277	-0.202247	0.323695	0.130597	0.181597	-0.0963272	0.0204376	0.029053	0.0832458	0.375901	-0.601832	0.038321	2.02826	1.53138	0.454134	-0.54013	0.153049	1.9697	1.70629
9.85	-0.37819	-0.0448297	-0.0337907	-0.19821	0.939544	-0.705886	0.530764	-0.174085	-0.156301	0.22262	0.0965665	0.184597	-0.0964328	0.575061	-0.292245	-0.204785	0.310031	0.128645	0.184928	-0.0963274	0.02538	0.0299892	0.0829408	0.359459	-0.598645	0.0355854	2.0267	1.53325	0.440198	-0.540893	0.152349	1.96769	1.70875
9.86	-0.37242	-0.0467691	-0.0337282	-0.196116	0.940955	-0.705924	0.513327	-0.170425	-0.15749	0.206646	0.0916698	0.186823	-0.0964328	0.559382	-0.292457	-0.20745	0.297169	0.127234	0.18869	-0.0963276	0.0300075	0.0310542	0.0825143	0.343336	-0.595347	0.0325328	2.02531	1.53505	0.426436	-0.541425	0.151061	1.96567	1.71126
9.87	-0.366583	-0.0487611	-0.0335732	-0.194084	0.942245	-0.705971	0.496247	-0.16689	-0.159157	0.191403	0.0873076	0.189656	-0.0964329	0.544136	-0.292886	-0.210309	0.285106	0.126357	0.193	-0.0963279	0.0342594	0.0322256	0.0819302	0.327541	-0.591948	0.0291565	2.02403	1.53681	0.4128	-0.541689	0.149126	1.96364	1.7138
9.88	-0.360638	-0.0507852	-0.0332791	-0.192111	0.943425	-0.706031	0.479447	-0.16351	-0.161355	0.176843	0.0834692	0.193144	-0.0964329	0.529265	-0.293493	-0.213402	0.273809	0.125991	0.197952	-0.0963281	0.0380977	0.0334801	0.0811501	0.312088	-0.588459	0.025462	2.02283	1.53856	0.399253	-0.541653	0.146517	1.96159	1.71642
9.89	-0.35457	-0.0528165	-0.0328068	-0.190194	0.944505	-0.706108	0.462877	-0.160313	-0.164103	0.162905	0.0801285	0.197297	-0.096433	0.514728	-0.29422	-0.216741	0.26321	0.126088	0.203596	-0.0963283	0.0415194	0.03479	0.08015	0.296978	-0.58488	0.021463	2.02164	1.54033	0.385773	-0.541286	0.143245	1.95951	1.71907
9.9	-0.348401	-0.0548194	-0.0321431	-0.188331	0.945493	-0.706205	0.446525	-0.157319	-0.167362	0.149522	0.0772437	0.202077	-0.096433	0.500495	-0.295003	-0.220315	0.253208	0.126576	0.209918	-0.0963285	0.0445618	0.0361152	0.0789398	0.282205	-0.581205	0.0171756	2.02041	1.5421	0.37236	-0.540572	0.139366	1.95738	1.72163
9.91	-0.342181	-0.0567398	-0.0313084	-0.186519	0.946394	-0.706322	0.430429	-0.154552	-0.171031	0.136626	0.0747601	0.207391	-0.096433	0.486547	-0.295762	-0.224104	0.243677	0.127364	0.216833	-0.0963287	0.047298	0.037396	0.0775722	0.267745	-0.577423	0.0126167	2.0191	1.54381	0.359031	-0.53951	0.134983	1.95521	1.72387
9.92	-0.33598	-0.0585049	-0.0303534	-0.184758	0.947212	-0.706456	0.414658	-0.152042	-0.174955	0.124164	0.0726171	0.213103	-0.0964331	0.472869	-0.296407	-0.22808	0.234479	0.128347	0.2242	-0.0963289	0.0498207	0.0385511	0.0761362	0.253567	-0.573528	0.00780654	2.01769	1.54543	0.345825	-0.538115	0.130231	1.95298	1.72562
9.93	-0.329868	-0.0600325	-0.0293468	-0.183046	0.947951	-0.706604	0.399294	-0.149827	-0.178942	0.112097	0.0707533	0.219047	-0.0964331	0.45944	-0.296841	-0.232219	0.225479	0.129419	0.231843	-0.0963292	0.0522193	0.0394885	0.0747399	0.239631	-0.569527	0.00277661	2.01616	1.5469	0.332797	-0.536417	0.125263	1.9507	1.72679
9.94	-0.323891	-0.0612473	-0.0283626	-0.18138	0.948613	-0.706759	0.384399	-0.147942	-0.182797	0.100409	0.0691102	0.225044	-0.0964332	0.446222	-0.296977	-0.236488	0.216558	0.130489	0.239567	-0.0963294	0.054556	0.0401228	0.0734921	0.225898	-0.565458	-0.0024205	2.0145	1.54818	0.320005	-0.53446	0.120235	1.94838	1.72737
9.95	-0.318065	-0.0620924	-0.0274707	-0.17976	0.949207	-0.706919	0.370005	-0.146417	-0.18634	0.0891116	0.067637	0.230919	-0.0964332	0.433153	-0.296745	-0.240853	0.20762	0.131485	0.247179	-0.0963296	0.0568512	0.0403901	0.0724868	0.212338	-0.561392	-0.00770297	2.01275	1.54923	0.307502	-0.53229	0.115286	1.94604	1.72737
9.96	-0.312374	-0.0625335	-0.0267331	-0.178182	0.949739	-0.707079	0.356115	-0.145271	-0.18942	0.07825	0.0662976	0.236521	-0.0964333	0.42016	-0.296099	-0.245277	0.198603	0.132363	0.254505	-0.0963298	0.0590854	0.0402541	0.0717942	0.198934	-0.557431	-0.0129609	2.01091	1.55003	0.295331	-0.529961	0.110526	1.94372	1.72681
9.97	-0.306788	-0.062559	-0.0262061	-0.176644	0.950217	-0.707238	0.34273	-0.144515	-0.19192	0.0679086	0.0650782	0.241728	-0.0964333	0.407177	-0.29502	-0.24972	0.18948	0.133103	0.261391	-0.09633	0.0612127	0.0397074	0.0714595	0.185702	-0.553687	-0.0180679	2.00901	1.55061	0.283512	-0.527526	0.106027	1.94149	1.72567
9.98	-0.301276	-0.0621772	-0.0259428	-0.175149	0.95065	-0.707392	0.329865	-0.14415	-0.193758	0.0582144	0.0639944	0.246457	-0.0964333	0.394165	-0.293515	-0.25414	0.180266	0.133711	0.267708	-0.0963302	0.0631768	0.0387709	0.0715064	0.172694	-0.550265	-0.0228958	2.00707	1.551	0.272045	-0.525034	0.101812	1.93939	1.72394
9.99	-0.29582	-0.0614108	-0.0259926	-0.173701	0.951044	-0.707541	0.317569	-0.144169	-0.194883	0.0493313	0.0630936	0.250664	-0.0964334	0.381125	-0.291615	-0.25849	0.17102	0.134212	0.273341	-0.0963305	0.06492	0.0374882	0.0719374	0.159999	-0.54724	-0.0273264	2.00509	1.55129	0.260908	-0.522531	0.0978565	1.9375	1.72165
10	-0.290409	-0.0602876	-0.0263963	-0.172306	0.951404	-0.707683	0.305924	-0.144573	-0.195278	0.0414445	0.0624482	0.254336	-0.0964334	0.368105	-0.289357	-0.262712	0.161845	0.134639	0.278181	-0.0963307	0.0663851	0.0359143	0.0727339	0.147739	-0.544664	-0.0312596	2.00309	1.55155	0.25007	-0.520049	0.0940842	1.93584	1.71894
10.01	-0.285041	-0.0588335	-0.0271792	-0.170977	0.951736	-0.70782	0.295032	-0.145369	-0.194948	0.034733	0.0621412	0.257474	-0.0964335	0.355192	-0.28678	-0.266735	0.152891	0.135028	0.282113	-0.0963309	0.0675152	0.034104	0.0738599	0.136054	-0.542559	-0.0346246	2.00107	1.55187	0.2395	-0.51761	0.0903875	1.93444	1.71611
10.02	-0.27971	-0.0570712	-0.0283444	-0.169725	0.952044	-0.707953	0.284989	-0.146571	-0.193911	0.0293313	0.0622495	0.26007	-0.0964335	0.342502	-0.283916	-0.270483	0.144347	0.135413	0.285036	-0.0963311	0.068249	0.0321018	0.0752701	0.125068	-0.54093	-0.037396	1.99905	1.55228	0.229193	-0.51522	0.0866582	1.93325	1.71366
10.03	-0.274396	-0.0550231	-0.0298672	-0.168562	0.952333	-0.708085	0.275854	-0.148194	-0.192201	0.0252919	0.0628286	0.262108	-0.0964336	0.330158	-0.280799	-0.273895	0.136437	0.135827	0.286894	-0.0963313	0.0685177	0.0299394	0.0769161	0.114877	-0.539765	-0.0396008	1.99704	1.55282	0.219177	-0.512872	0.082819	1.93223	1.71215
10.04	-0.269062	-0.0527168	-0.0316924	-0.167499	0.952611	-0.708221	0.267621	-0.150241	-0.189867	0.0225599	0.063899	0.263568	-0.0964336	0.318275	-0.277468	-0.276939	0.12939	0.136299	0.287703	-0.0963316	0.0682496	0.0276393	0.0787372	0.105536	-0.539034	-0.0413028	1.99507	1.5535	0.209503	-0.510558	0.078834	1.93128	1.71197
10.05	-0.263665	-0.0501941	-0.0337332	-0.166539	0.952883	-0.708363	0.260222	-0.152692	-0.186988	0.0209803	0.0654396	0.26444	-0.0964337	0.306956	-0.273977	-0.279609	0.123422	0.136862	0.287555	-0.0963318	0.0673893	0.0252276	0.0806396	0.0970675	-0.538685	-0.0425721	1.99314	1.5543	0.200202	-0.508277	0.0746812	1.93037	1.71325
10.06	-0.258174	-0.0475247	-0.0358723	-0.165684	0.953155	-0.708515	0.253531	-0.155481	-0.183692	0.0203381	0.0673893	0.264738	-0.0964337	0.296293	-0.270408	-0.281908	0.118705	0.13756	0.2866	-0.096332	0.0659152	0.0227487	0.0824843	0.0894677	-0.538637	-0.0434642	1.99127	1.55523	0.191266	-0.506043	0.0703285	1.92947	1.71591
10.07	-0.252569	-0.0448177	-0.0379702	-0.164926	0.953432	-0.708682	0.247382	-0.158488	-0.180169	0.0204024	0.0696547	0.264513	-0.0964338	0.286356	-0.266885	-0.283831	0.11534	0.138445	0.285023	-0.0963322	0.0638385	0.0202766	0.0840982	0.0827036	-0.538795	-0.0440221	1.98944	1.55624	0.182649	-0.503887	0.0657379	1.92858	1.71968
10.08	-0.246841	-0.0422223	-0.0398809	-0.164256	0.953718	-0.708861	0.241573	-0.161536	-0.176661	0.0209612	0.072121	0.263866	-0.0964338	0.277181	-0.263569	-0.285365	0.113349	0.139574	0.283026	-0.0963325	0.0611909	0.0179143	0.0853078	0.0767076	-0.539053	-0.0442961	1.98768	1.55729	0.174307	-0.501848	0.0608942	1.92775	1.72417
10.09	-0.240989	-0.0399097	-0.0414724	-0.163661	0.954016	-0.709053	0.235898	-0.164412	-0.173432	0.0218383	0.0746644	0.262938	-0.0964339	0.26877	-0.260645	-0.286499	0.112674	0.140994	0.28083	-0.0963327	0.0580191	0.0157792	0.0859757	0.0713779	-0.539311	-0.0443613	1.98599	1.55831	0.166218	-0.499967	0.0558297	1.92701	1.72889
10.1	-0.235041	-0.0380324	-0.0426499	-0.163129	0.954328	-0.709252	0.230187	-0.166918	-0.170722	0.0228953	0.0771672	0.261898	-0.0964339	0.261103	-0.258277	-0.287255	0.113188	0.142724	0.278659	-0.0963329	0.0543968	0.0139726	0.0860279	0.0665873	-0.539481	-0.0443183	1.98439	1.55923	0.158394	-0.49828	0.0506261	1.92639	1.73339
10.11	-0.229065	-0.0366706	-0.0433776	-0.162648	0.954651	-0.709453	0.224355	-0.16893	-0.168691	0.0240227	0.0795366	0.260919	-0.096434	0.25415	-0.256548	-0.287691	0.114688	0.144738	0.27671	-0.0963331	0.0504403	0.0125374	0.0854696	0.0621992	-0.5395	-0.0442774	1.98292	1.55998	0.150866	-0.49681	0.0453959	1.92594	1.73723
10.12	-0.223167	-0.0357911	-0.0436896	-0.162209	0.95498	-0.709652	0.21842	-0.170453	-0.167382	0.0251303	0.0817192	0.260156	-0.096434	0.247858	-0.255402	-0.287897	0.116891	0.146956	0.275089	-0.0963333	0.0463083	0.0114279	0.0843877	0.0580837	-0.539343	-0.0443388	1.98161	1.56053	0.143674	-0.495567	0.0402556	1.92566	1.74018
